<?xml version="1.0" encoding="utf-8"?>
<!-- Generator: Adobe Illustrator 19.2.1, SVG Export Plug-In . SVG Version: 6.00 Build 0)  -->
<svg version="1.1" id="layer" xmlns="http://www.w3.org/2000/svg" xmlns:xlink="http://www.w3.org/1999/xlink" x="0px" y="0px"
	 viewBox="0 0 652 652" style="enable-background:new 0 0 652 652;" xml:space="preserve">
<style type="text/css">
	.st0{fill:#0815FF;}
</style>
<path class="st0" d="M97.7,425.3c-41.2,0.8-75.2-32-75.9-73.1c0-1.1,0-2.3,0-3.4c-1.1-40.9,31.2-74.9,72.1-75.9c1.3,0,2.6,0,3.8,0
	c36.7,0,65.5,22,72.2,55.1H135c-5.8-15.5-20.9-25.4-37.3-24.5c-11.1-0.1-21.8,4.1-30,11.6c-8.6,9.3-13,21.7-12.2,34.3
	c-0.4,12.6,4,24.8,12.2,34.3c7.7,7.9,18.4,12.1,29.4,11.6c16.7,1.1,32-9.2,37.3-25.1h34.9C162.6,408.1,128.3,425.3,97.7,425.3z
	 M190.7,215.3h33.1v206.3h-33.1V215.3z M323.6,425.3c-40.4,2.2-74.9-28.9-77.1-69.3c-0.1-2.2-0.1-4.4-0.1-6.6
	c-1.5-40.7,30.3-75,71-76.5c1.6-0.1,3.3-0.1,4.9,0c20.6-0.6,40.4,7.7,54.5,22.7c14.6,16.6,21.9,38.5,20.2,60.5H280.1l0.6,3.7
	c0.9,22.5,19.8,39.9,42.2,39.2c14.4,0.7,28.1-6.6,35.5-19h34.9C382.6,408.7,354.3,427.1,323.6,425.3z M322.4,299.2
	c-18.6-0.5-35.2,11.9-39.8,30l-1.2,3.7h80.8l-1.2-3.7C357,311.2,340.8,298.5,322.4,299.2L322.4,299.2z M488.3,425.3
	c-40.9,1.1-74.9-31.2-75.9-72.1c0-1.3,0-2.6,0-3.8c-0.2-41.9,33.7-76.1,75.6-76.2c41.9-0.2,76.1,33.7,76.2,75.6
	c0.9,41.4-31.9,75.6-73.3,76.5C490,425.3,489.1,425.3,488.3,425.3z M488.3,304.1c-23.3-0.1-42.2,18.8-42.3,42.1c0,0.9,0,1.8,0.1,2.6
	c-1.4,23.3,16.5,43.3,39.8,44.7c23.3,1.4,43.3-16.5,44.7-39.8c0.1-1.6,0.1-3.3,0-4.9c1.4-23.3-16.3-43.2-39.6-44.6
	C490,304.1,489.1,304,488.3,304.1L488.3,304.1z M602.1,387.9c10.8,0,19.6,8.8,19.6,19.6c0,10.8-8.8,19.6-19.6,19.6
	c-10.8,0-19.6-8.8-19.6-19.6C582.5,396.7,591.3,387.9,602.1,387.9z"/>
</svg>
